<svg width="28" height="18" viewBox="0 0 28 18" fill="none" xmlns="http://www.w3.org/2000/svg">
<path d="M18.2814 1.19067H25.2683V2.92648H18.2814V1.19067ZM11.2806 8.05858C12.825 7.30185 13.634 6.15063 13.634 4.37179C13.634 0.853556 11.0774 0 8.12508 0H0V17.6593H8.35272C11.4837 17.6593 14.422 16.1172 14.422 12.5308C14.422 10.3144 13.3994 8.67543 11.2806 8.05858ZM3.78937 3.01255H7.34409C8.71345 3.01255 9.94271 3.40347 9.94271 5.03168C9.94271 6.53078 8.98662 7.13329 7.63127 7.13329H3.78937V3.01255ZM7.8344 14.6611H3.78587V9.79797H7.91495C9.58199 9.79797 10.6361 10.5117 10.6361 12.3192C10.6361 14.098 9.37886 14.6611 7.8344 14.6611ZM28 11.4513C28 7.66766 25.8392 4.51524 21.9307 4.51524C18.1308 4.51524 15.5462 7.44531 15.5462 11.2863C15.5462 15.2672 17.9942 18 21.9307 18C24.9111 18 26.8408 16.6264 27.7689 13.6964H24.7465C24.4173 14.7902 23.0794 15.364 22.0393 15.364C20.029 15.364 18.9784 14.159 18.9784 12.1112H27.9755C27.986 11.8996 28 11.6772 28 11.4513ZM18.9784 9.8948C19.0869 8.21279 20.1831 7.16198 21.8221 7.16198C23.5452 7.16198 24.4068 8.19845 24.5574 9.8948H18.9784Z" fill="white"/>
</svg>
