<svg width="24" height="24" viewBox="0 0 24 24" fill="none" xmlns="http://www.w3.org/2000/svg">
<path d="M12 5.9912C8.67483 5.9912 5.99123 8.67479 5.99123 12C5.99123 15.3252 8.67483 18.0088 12 18.0088C15.3252 18.0088 18.0088 15.3252 18.0088 12C18.0088 8.67479 15.3252 5.9912 12 5.9912ZM12 15.9053C9.84963 15.9053 8.09475 14.1504 8.09475 12C8.09475 9.8496 9.84963 8.09471 12 8.09471C14.1504 8.09471 15.9053 9.8496 15.9053 12C15.9053 14.1504 14.1504 15.9053 12 15.9053ZM18.2549 4.34471C17.4785 4.34471 16.8516 4.97167 16.8516 5.74803C16.8516 6.5244 17.4785 7.15135 18.2549 7.15135C19.0313 7.15135 19.6582 6.52733 19.6582 5.74803C19.6585 5.56368 19.6223 5.3811 19.5519 5.21073C19.4814 5.04037 19.3781 4.88558 19.2477 4.75522C19.1174 4.62486 18.9626 4.5215 18.7922 4.45106C18.6219 4.38062 18.4393 4.34448 18.2549 4.34471ZM23.7129 12C23.7129 10.3828 23.7276 8.78026 23.6368 7.166C23.5459 5.291 23.1182 3.62694 21.7471 2.25585C20.3731 0.881822 18.7119 0.457018 16.8369 0.366197C15.2198 0.275377 13.6172 0.290025 12.003 0.290025C10.3858 0.290025 8.78323 0.275377 7.16897 0.366197C5.29397 0.457018 3.6299 0.884752 2.25881 2.25585C0.884783 3.62987 0.459978 5.291 0.369158 7.166C0.278337 8.78319 0.292986 10.3857 0.292986 12C0.292986 13.6142 0.278337 15.2197 0.369158 16.834C0.459978 18.709 0.887713 20.373 2.25881 21.7441C3.63283 23.1182 5.29397 23.543 7.16897 23.6338C8.78616 23.7246 10.3887 23.7099 12.003 23.7099C13.6201 23.7099 15.2227 23.7246 16.8369 23.6338C18.7119 23.543 20.376 23.1152 21.7471 21.7441C23.1211 20.3701 23.5459 18.709 23.6368 16.834C23.7305 15.2197 23.7129 13.6172 23.7129 12ZM21.1348 18.9082C20.9209 19.4414 20.6631 19.8398 20.25 20.25C19.8369 20.6631 19.4414 20.9209 18.9082 21.1348C17.3672 21.7471 13.708 21.6094 12 21.6094C10.292 21.6094 6.6299 21.7471 5.08889 21.1377C4.55568 20.9238 4.15725 20.666 3.74709 20.2529C3.334 19.8398 3.07619 19.4443 2.86232 18.9111C2.25295 17.3672 2.39064 13.708 2.39064 12C2.39064 10.292 2.25295 6.62987 2.86232 5.08885C3.07619 4.55565 3.334 4.15721 3.74709 3.74706C4.16018 3.3369 4.55568 3.07616 5.08889 2.86229C6.6299 2.25292 10.292 2.39061 12 2.39061C13.708 2.39061 17.3701 2.25292 18.9112 2.86229C19.4444 3.07616 19.8428 3.33397 20.253 3.74706C20.666 4.16014 20.9239 4.55565 21.1377 5.08885C21.7471 6.62987 21.6094 10.292 21.6094 12C21.6094 13.708 21.7471 17.3672 21.1348 18.9082Z" fill="white"/>
</svg>
